<svg width="180" height="36" viewBox="0 0 180 36" fill="none" xmlns="http://www.w3.org/2000/svg">
<path d="M17 2C26.3888 2 34 9.61116 34 19C34 28.3888 26.3888 36 17 36C7.61116 36 0 28.3888 0 19C0 17.2598 0.262248 15.5809 0.748047 14H8.5V19.5C8.5 28 25 30 25 19H20.002C20 23 13.5 22.5 13.502 19C13.5039 15.5 13.502 14 13.502 14H18.502L21.002 9H13.502V2.36133C14.6309 2.12517 15.8009 2 17 2Z" fill="#00205B"/>
<path d="M50.748 32V10.148H42.36V6.08H63.474V10.148H55.086V32H50.748ZM64.5591 32V12.56H68.3931V17.294L67.9251 16.682C68.1651 16.034 68.4831 15.446 68.8791 14.918C69.2871 14.378 69.7731 13.934 70.3371 13.586C70.8171 13.262 71.3451 13.01 71.9211 12.83C72.5091 12.638 73.1091 12.524 73.7211 12.488C74.3331 12.44 74.9271 12.464 75.5031 12.56V16.61C74.9271 16.442 74.2611 16.388 73.5051 16.448C72.7611 16.508 72.0891 16.718 71.4891 17.078C70.8891 17.402 70.3971 17.816 70.0131 18.32C69.6411 18.824 69.3651 19.4 69.1851 20.048C69.0051 20.684 68.9151 21.374 68.9151 22.118V32H64.5591ZM86.228 32.558C84.788 32.558 83.6 32.318 82.664 31.838C81.728 31.358 80.984 30.746 80.432 30.002C79.88 29.258 79.472 28.466 79.208 27.626C78.944 26.786 78.77 25.994 78.686 25.25C78.614 24.494 78.578 23.882 78.578 23.414V12.56H82.97V21.92C82.97 22.52 83.012 23.198 83.096 23.954C83.18 24.698 83.372 25.418 83.672 26.114C83.984 26.798 84.44 27.362 85.04 27.806C85.652 28.25 86.474 28.472 87.506 28.472C88.058 28.472 88.604 28.382 89.144 28.202C89.684 28.022 90.17 27.716 90.602 27.284C91.046 26.84 91.4 26.234 91.664 25.466C91.928 24.698 92.06 23.726 92.06 22.55L94.634 23.648C94.634 25.304 94.31 26.804 93.662 28.148C93.026 29.492 92.084 30.566 90.836 31.37C89.588 32.162 88.052 32.558 86.228 32.558ZM92.582 32V25.97H92.06V12.56H96.416V32H92.582ZM110.311 32.54C108.343 32.54 106.615 32.114 105.127 31.262C103.639 30.41 102.475 29.228 101.635 27.716C100.807 26.204 100.393 24.464 100.393 22.496C100.393 20.372 100.801 18.53 101.617 16.97C102.433 15.398 103.567 14.18 105.019 13.316C106.471 12.452 108.151 12.02 110.059 12.02C112.075 12.02 113.785 12.494 115.189 13.442C116.605 14.378 117.655 15.704 118.339 17.42C119.023 19.136 119.281 21.158 119.113 23.486H114.811V21.902C114.799 19.79 114.427 18.248 113.695 17.276C112.963 16.304 111.811 15.818 110.239 15.818C108.463 15.818 107.143 16.37 106.279 17.474C105.415 18.566 104.983 20.168 104.983 22.28C104.983 24.248 105.415 25.772 106.279 26.852C107.143 27.932 108.403 28.472 110.059 28.472C111.127 28.472 112.045 28.238 112.813 27.77C113.593 27.29 114.193 26.6 114.613 25.7L118.897 26.996C118.153 28.748 117.001 30.11 115.441 31.082C113.893 32.054 112.183 32.54 110.311 32.54ZM103.615 23.486V20.21H116.989V23.486H103.615ZM127.213 32V10.148H118.825V6.08H139.939V10.148H131.551V32H127.213ZM148.772 32.54C146.804 32.54 145.076 32.114 143.588 31.262C142.1 30.41 140.936 29.228 140.096 27.716C139.268 26.204 138.854 24.464 138.854 22.496C138.854 20.372 139.262 18.53 140.078 16.97C140.894 15.398 142.028 14.18 143.48 13.316C144.932 12.452 146.612 12.02 148.52 12.02C150.536 12.02 152.246 12.494 153.65 13.442C155.066 14.378 156.116 15.704 156.8 17.42C157.484 19.136 157.742 21.158 157.574 23.486H153.272V21.902C153.26 19.79 152.888 18.248 152.156 17.276C151.424 16.304 150.272 15.818 148.7 15.818C146.924 15.818 145.604 16.37 144.74 17.474C143.876 18.566 143.444 20.168 143.444 22.28C143.444 24.248 143.876 25.772 144.74 26.852C145.604 27.932 146.864 28.472 148.52 28.472C149.588 28.472 150.506 28.238 151.274 27.77C152.054 27.29 152.654 26.6 153.074 25.7L157.358 26.996C156.614 28.748 155.462 30.11 153.902 31.082C152.354 32.054 150.644 32.54 148.772 32.54ZM142.076 23.486V20.21H155.45V23.486H142.076ZM161.95 32V5.54H166.288V32H161.95ZM172.04 32V5.54H176.378V32H172.04Z" fill="#00205B"/>
</svg>
