<svg width="58" height="58" viewBox="0 0 58 58" fill="none" xmlns="http://www.w3.org/2000/svg">
<g filter="url(#filter0_f_177_1753)">
<path d="M34.2367 25.6383L27.125 32.75L24.7008 30.3258M29 14C20.7157 14 14 20.7157 14 29C14 37.2843 20.7157 44 29 44C37.2843 44 44 37.2843 44 29C44 20.7157 37.2843 14 29 14Z" stroke="#3AC3A5" stroke-width="4" stroke-linecap="round" stroke-linejoin="round"/>
</g>
<path d="M34.2367 25.6383L27.125 32.75L24.7008 30.3258M29 14C20.7157 14 14 20.7157 14 29C14 37.2843 20.7157 44 29 44C37.2843 44 44 37.2843 44 29C44 20.7157 37.2843 14 29 14Z" stroke="#3AC3A5" stroke-width="4" stroke-linecap="round" stroke-linejoin="round"/>
<defs>
<filter id="filter0_f_177_1753" x="0" y="0" width="58" height="58" filterUnits="userSpaceOnUse" color-interpolation-filters="sRGB">
<feFlood flood-opacity="0" result="BackgroundImageFix"/>
<feBlend mode="normal" in="SourceGraphic" in2="BackgroundImageFix" result="shape"/>
<feGaussianBlur stdDeviation="6" result="effect1_foregroundBlur_177_1753"/>
</filter>
</defs>
</svg>
